<?xml version="1.0" encoding="UTF-8" standalone="no"?>
<!-- Created with Inkscape (http://www.inkscape.org/) -->

<svg
   viewBox="0 0 16 18.5"
   version="1.1"
   id="svg5"
   xml:space="preserve"
   inkscape:export-filename="bitmap.svg"
   inkscape:export-xdpi="96"
   inkscape:export-ydpi="96"
   xmlns:inkscape="http://www.inkscape.org/namespaces/inkscape"
   xmlns:sodipodi="http://sodipodi.sourceforge.net/DTD/sodipodi-0.dtd"
   xmlns:xlink="http://www.w3.org/1999/xlink"
   xmlns="http://www.w3.org/2000/svg"
   xmlns:svg="http://www.w3.org/2000/svg">
<rect
       id="SVGID_1_"
       x="87.400002"
       y="17.799999"
       width="60.299999"
       height="69.199997" /><rect
       id="SVGID_3_"
       x="88"
       y="35"
       width="1.6"
       height="34.799999" /><rect
       id="SVGID_5_"
       x="145.39999"
       y="35"
       width="1.6"
       height="34.799999" /><rect
       id="SVGID_7_"
       x="116.7"
       y="18.4"
       width="1.6"
       height="67.900002" />
  <g
     id="Layer_1"
     transform="matrix(0.26458333,0,0,0.26458334,-23.124578,-4.7095831)">
	<g
   id="g495"
   style="opacity:1;stroke-width:1.00157;stroke-dasharray:none">
		<clipPath
   id="SVGID_2_">
			<use
   xlink:href="#SVGID_1_"
   style="overflow:visible"
   id="use380" />
		</clipPath>
		<g
   class="st0"
   clip-path="url(#SVGID_2_)"
   id="g493"
   style="stroke-width:1.00157;stroke-dasharray:none">
			<g
   id="g387"
   style="stroke-width:1.00157;stroke-dasharray:none">
				<g
   id="g385"
   style="stroke-width:1.00157;stroke-dasharray:none">
					<path
   class="st1"
   d="m 88.8,36.6 c -0.5,0 -0.8,-0.4 -0.8,-0.8 0,-0.3 0.2,-0.6 0.4,-0.7 l 28.7,-16.6 c 0.4,-0.2 0.9,-0.1 1.1,0.3 0.2,0.4 0.1,0.9 -0.3,1.1 L 89.2,36.5 c -0.1,0.1 -0.3,0.1 -0.4,0.1"
   id="path383"
   style="opacity:0.3;stroke-width:1.00157;stroke-dasharray:none" />
				</g>
			</g>
			<g
   id="g393"
   style="stroke-width:1.00157;stroke-dasharray:none">
				<g
   id="g391"
   style="stroke-width:1.00157;stroke-dasharray:none">
					<path
   class="st1"
   d="M 88.8,69.8 C 88.3,69.8 88,69.4 88,69 c 0,-0.3 0.2,-0.6 0.4,-0.7 l 57.4,-33.2 c 0.4,-0.2 0.9,-0.1 1.1,0.3 0.2,0.4 0.1,0.9 -0.3,1.1 L 89.2,69.7 c -0.1,0.1 -0.3,0.1 -0.4,0.1"
   id="path389"
   style="display:inline;opacity:0.3;stroke-width:1.00157;stroke-dasharray:none" />
				</g>
			</g>
			<g
   id="g397"
   style="stroke-width:1.00157;stroke-dasharray:none">
				<path
   class="st1"
   d="m 146.2,36.6 c -0.1,0 -0.3,0 -0.4,-0.1 L 117.1,19.9 c -0.4,-0.2 -0.5,-0.7 -0.3,-1.1 0.2,-0.4 0.7,-0.5 1.1,-0.3 l 28.7,16.6 c 0.4,0.2 0.5,0.7 0.3,1.1 -0.2,0.3 -0.4,0.4 -0.7,0.4"
   id="path395"
   style="opacity:0.3;stroke-width:1.00157;stroke-dasharray:none" />
			</g>
			<g
   id="g403"
   style="stroke-width:1.00157;stroke-dasharray:none">
				<g
   id="g401"
   style="stroke-width:1.00157;stroke-dasharray:none">
					<path
   class="st1"
   d="m 146.2,69.8 c -0.1,0 -0.3,0 -0.4,-0.1 L 88.4,36.5 C 88,36.3 87.9,35.8 88.1,35.4 88.3,35 88.8,34.9 89.2,35.1 l 57.4,33.2 c 0.4,0.2 0.5,0.7 0.3,1.1 -0.2,0.2 -0.4,0.4 -0.7,0.4"
   id="path399"
   style="opacity:0.3;stroke-width:1.00157;stroke-dasharray:none" />
				</g>
			</g>
			<g
   id="g409"
   style="stroke-width:1.00157;stroke-dasharray:none">
				<g
   id="g407"
   style="stroke-width:1.00157;stroke-dasharray:none">
					<path
   class="st1"
   d="m 117.5,86.4 c -0.1,0 -0.3,0 -0.4,-0.1 L 88.4,69.7 C 88,69.5 87.9,69 88.1,68.6 c 0.2,-0.4 0.7,-0.5 1.1,-0.3 l 28.7,16.6 c 0.4,0.2 0.5,0.7 0.3,1.1 -0.1,0.2 -0.4,0.4 -0.7,0.4"
   id="path405"
   style="opacity:0.3;stroke-width:1.00157;stroke-dasharray:none" />
				</g>
			</g>
			<g
   id="g415"
   style="stroke-width:1.00157;stroke-dasharray:none">
				<g
   id="g413"
   style="stroke-width:1.00157;stroke-dasharray:none">
					<path
   class="st1"
   d="m 117.5,86.4 c -0.5,0 -0.8,-0.4 -0.8,-0.8 0,-0.3 0.2,-0.6 0.4,-0.7 l 28.7,-16.6 c 0.4,-0.2 0.9,-0.1 1.1,0.3 0.2,0.4 0.1,0.9 -0.3,1.1 l -28.7,16.6 c -0.1,0.1 -0.2,0.1 -0.4,0.1"
   id="path411"
   inkscape:label="path411"
   style="opacity:0.3;stroke-width:1.00157;stroke-dasharray:none" />
				</g>
			</g>
			<g
   id="g429"
   style="stroke-width:1.00157;stroke-dasharray:none"
   inkscape:label="g429">
				<path
   id="use420"
   style="display:inline;opacity:0.5;fill:#666666;stroke-width:1.00157"
   d="m 88,35 h 1.6 V 69.799999 H 88 Z" />
				<clipPath
   id="SVGID_4_">
					<use
   xlink:href="#SVGID_3_"
   style="overflow:visible"
   id="use422" />
				</clipPath>
				
			</g>
			<g
   id="g441"
   style="stroke-width:1.00157;stroke-dasharray:none">
				<path
   id="use434"
   style="display:inline;opacity:0.5;fill:#666666;fill-opacity:1;stroke-width:1.00157"
   d="m 145.39999,35 h 1.6 v 34.799999 h -1.6 z"
   inkscape:label="use434" />
				<clipPath
   id="SVGID_6_">
					<use
   xlink:href="#SVGID_5_"
   style="overflow:visible"
   id="use436" />
				</clipPath>
				
			</g>
			<g
   id="g455"
   style="stroke-width:1.00157;stroke-dasharray:none">
				<path
   id="use446"
   style="opacity:0.5;fill:#666666;stroke-width:1.00157"
   d="m 116.7,18.4 h 1.6 v 67.900001 h -1.6 z" />
				<clipPath
   id="SVGID_8_">
					<use
   xlink:href="#SVGID_7_"
   style="overflow:visible"
   id="use448" />
				</clipPath>
				<g
   class="st4"
   clip-path="url(#SVGID_8_)"
   id="g453"
   style="stroke-width:1.00157;stroke-dasharray:none">
					
				</g>
			</g>
			<path
   class="st5"
   d="m 125.8,25.5 c -0.3,0 -0.5,-0.1 -0.7,-0.2 l -7.6,-4.4 -7.7,4.4 c -0.7,0.4 -1.6,0.2 -2,-0.5 -0.4,-0.7 -0.2,-1.6 0.5,-2 v 0 l 8.4,-4.8 c 0.4,-0.3 1,-0.3 1.4,0 l 8.3,4.8 c 0.7,0.4 0.9,1.3 0.5,2 0,0.4 -0.5,0.7 -1.1,0.7"
   id="path457"
   style="stroke-width:1.00157;stroke-dasharray:none" />
			<path
   class="st5"
   d="m 117.5,63.5 c -0.8,0 -1.4,-0.6 -1.4,-1.4 0,0 0,0 0,-0.1 v -9.6 c 0,-0.8 0.6,-1.4 1.4,-1.4 0.8,0 1.4,0.6 1.4,1.4 0,0 0,0 0,0 V 62 c 0,0.8 -0.6,1.4 -1.4,1.5 v 0"
   id="path459"
   style="stroke-width:1.00157;stroke-dasharray:none" />
			<path
   class="st5"
   d="m 88.8,46.9 c -0.8,0 -1.4,-0.6 -1.4,-1.4 v 0 -9.7 c 0,-0.8 0.6,-1.4 1.4,-1.4 0.8,0 1.4,0.6 1.4,1.4 0,0 0,0 0,0 v 9.7 c 0,0.7 -0.6,1.4 -1.4,1.4 v 0"
   id="path461"
   style="stroke-width:1.00157;stroke-dasharray:none" />
			<path
   class="st5"
   d="m 146.2,46.9 c -0.8,0 -1.4,-0.6 -1.4,-1.4 v 0 -9.7 c 0,-0.8 0.6,-1.4 1.4,-1.4 0.8,0 1.4,0.6 1.4,1.4 v 9.7 c 0,0.7 -0.6,1.4 -1.4,1.4 v 0"
   id="path463"
   style="stroke-width:1.00157;stroke-dasharray:none" />
			<path
   class="st5"
   d="m 146.2,70.4 c -0.8,0 -1.4,-0.6 -1.4,-1.4 v -9.7 c 0,-0.8 0.6,-1.4 1.4,-1.4 v 0 0 c 0.8,0 1.4,0.6 1.4,1.4 v 0 9.7 c 0,0.8 -0.6,1.4 -1.4,1.4 z"
   id="path465"
   style="stroke-width:1.00157;stroke-dasharray:none" />
			<path
   class="st5"
   d="M 88.8,70.4 C 88,70.4 87.4,69.8 87.4,69 v -9.7 c 0,-0.8 0.6,-1.4 1.4,-1.4 0.8,0 1.4,0.6 1.4,1.4 0,0 0,0 0,0 V 69 c 0,0.8 -0.6,1.4 -1.4,1.4 0,0 0,0 0,0"
   id="path467"
   style="stroke-width:1.00157;stroke-dasharray:none" />
			<path
   class="st5"
   d="m 117.5,31.2 c -0.8,0 -1.4,-0.6 -1.4,-1.4 0,0 0,0 0,0 V 19.2 c 0,-0.8 0.6,-1.4 1.4,-1.4 0.8,0 1.4,0.6 1.4,1.4 0,0 0,0 0,0 v 10.5 c 0,0.9 -0.6,1.5 -1.4,1.5 v 0"
   id="path469"
   style="stroke-width:1.00157;stroke-dasharray:none" />
			<path
   class="st5"
   d="m 117.5,87 c -0.8,0 -1.4,-0.6 -1.4,-1.4 0,0 0,0 0,0 V 76 c 0,-0.8 0.6,-1.4 1.4,-1.4 0.8,0 1.4,0.6 1.4,1.4 0,0 0,0 0,0 v 9.7 c 0,0.7 -0.6,1.3 -1.4,1.3"
   id="path471"
   style="stroke-width:1.00157;stroke-dasharray:none" />
			<path
   class="st5"
   d="m 117.5,87 c -0.3,0 -0.5,-0.1 -0.7,-0.2 L 108.4,82 c -0.7,-0.4 -0.9,-1.3 -0.5,-2 0.4,-0.7 1.3,-0.9 2,-0.5 l 7.7,4.4 7.6,-4.4 c 0.7,-0.3 1.6,0.1 1.8,0.9 0.2,0.6 0,1.2 -0.4,1.6 l -8.3,4.8 c -0.3,0.1 -0.5,0.2 -0.8,0.2"
   id="path473"
   style="stroke-width:1.00157;stroke-dasharray:none" />
			<path
   class="st5"
   d="m 117.5,53.8 c -0.3,0 -0.5,-0.1 -0.7,-0.2 l -8.4,-4.8 c -0.7,-0.4 -0.9,-1.3 -0.5,-2 0.4,-0.7 1.3,-0.9 2,-0.5 l 7.7,4.4 7.6,-4.4 c 0.7,-0.4 1.6,-0.1 1.9,0.6 0.3,0.7 0.1,1.5 -0.5,1.9 l -8.3,4.8 c -0.3,0.1 -0.5,0.2 -0.8,0.2"
   id="path475"
   style="stroke-width:1.00157;stroke-dasharray:none" />
			<path
   class="st5"
   d="m 137.8,42.1 c -0.8,0 -1.4,-0.6 -1.4,-1.4 0,-0.5 0.3,-1 0.7,-1.3 l 8.4,-4.8 c 0.7,-0.4 1.6,-0.2 2,0.5 0.4,0.7 0.2,1.6 -0.5,2 l -8.4,4.8 c -0.3,0.1 -0.5,0.2 -0.8,0.2"
   id="path477"
   style="stroke-width:1.00157;stroke-dasharray:none" />
			<path
   class="st5"
   d="m 146.2,37.2 c -0.3,0 -0.5,-0.1 -0.7,-0.2 l -8.4,-4.8 c -0.7,-0.4 -0.9,-1.3 -0.5,-2 0.4,-0.7 1.3,-0.9 2,-0.5 l 8.4,4.8 c 0.7,0.4 0.9,1.3 0.5,2 -0.3,0.5 -0.8,0.7 -1.3,0.7"
   id="path479"
   style="stroke-width:1.00157;stroke-dasharray:none" />
			<path
   class="st5"
   d="m 97.2,42.1 c -0.3,0 -0.5,-0.1 -0.7,-0.2 L 88.1,37 c -0.7,-0.4 -0.9,-1.3 -0.5,-2 0.4,-0.7 1.3,-0.9 2,-0.5 l 8.4,4.8 c 0.7,0.4 0.9,1.3 0.5,2 -0.3,0.4 -0.8,0.7 -1.3,0.8"
   id="path481"
   style="stroke-width:1.00157;stroke-dasharray:none" />
			<path
   class="st5"
   d="m 88.8,37.2 c -0.8,0 -1.4,-0.6 -1.4,-1.4 0,-0.5 0.3,-1 0.7,-1.3 l 8.4,-4.8 c 0.7,-0.4 1.6,-0.2 2,0.5 0.4,0.7 0.2,1.6 -0.5,2 v 0 L 89.5,37 c -0.2,0.1 -0.4,0.2 -0.7,0.2"
   id="path483"
   style="stroke-width:1.00157;stroke-dasharray:none" />
			<path
   class="st5"
   d="m 137.8,75.2 c -0.8,0 -1.4,-0.6 -1.4,-1.4 0,-0.5 0.3,-1 0.7,-1.3 l 8.4,-4.8 c 0.7,-0.4 1.6,-0.2 2,0.5 0.4,0.7 0.2,1.6 -0.5,2 l -8.4,4.8 c -0.3,0.2 -0.5,0.2 -0.8,0.2"
   id="path485"
   style="stroke-width:1.00157;stroke-dasharray:none" />
			<path
   class="st5"
   d="m 146.2,70.4 c -0.3,0 -0.5,-0.1 -0.7,-0.2 l -8.4,-4.8 c -0.7,-0.4 -0.9,-1.3 -0.5,-2 0.4,-0.7 1.3,-0.9 2,-0.5 l 8.4,4.8 c 0.7,0.4 0.9,1.3 0.5,2 -0.3,0.4 -0.8,0.7 -1.3,0.7"
   id="path487"
   style="stroke-width:1.00157;stroke-dasharray:none" />
			<path
   class="st5"
   d="m 97.2,75.2 c -0.3,0 -0.5,-0.1 -0.7,-0.2 l -8.4,-4.8 c -0.7,-0.4 -0.9,-1.3 -0.5,-2 0.4,-0.7 1.3,-0.9 2,-0.5 l 8.4,4.8 c 0.7,0.4 0.9,1.3 0.5,2 -0.3,0.5 -0.8,0.8 -1.3,0.7"
   id="path489"
   style="stroke-width:1.00157;stroke-dasharray:none" />
			<path
   class="st5"
   d="m 88.8,70.4 c -0.8,0 -1.4,-0.6 -1.4,-1.4 0,-0.5 0.3,-1 0.7,-1.3 l 8.3,-4.8 c 0.7,-0.4 1.6,-0.2 2,0.5 0.4,0.7 0.2,1.6 -0.5,2 l -8.3,4.8 c -0.3,0.1 -0.5,0.2 -0.8,0.2"
   id="path491"
   style="stroke-width:1.00157;stroke-dasharray:none" />
		</g>
	</g>
</g></svg>
